<?xml version="1.0" encoding="UTF-8"?>
<svg version="1.1" xmlns="http://www.w3.org/2000/svg" width="407" height="399">
<path d="M0 0 C134.31 0 268.62 0 407 0 C407 131.67 407 263.34 407 399 C272.69 399 138.38 399 0 399 C0 267.33 0 135.66 0 0 Z " fill="#034080" transform="translate(0,0)"/>
<path d="M0 0 C4.0357625 1.6912458 6.60658898 5.31174527 9.5390625 8.46484375 C14.45821592 13.03367171 19.73595681 14.45449859 26.171875 15.78515625 C31.82186706 17.0100139 37.04735361 18.52721839 42.421875 20.66015625 C50.90062174 23.83846385 58.76385542 24.34791795 67.171875 20.91015625 C68.491875 20.91015625 69.811875 20.91015625 71.171875 20.91015625 C71.28402344 21.51601562 71.39617187 22.121875 71.51171875 22.74609375 C74.19184099 34.13223398 82.50813432 40.75189484 91.49609375 47.609375 C98.47352475 53.60894706 103.25999287 61.2801767 108.31640625 68.8828125 C115.09520675 78.96203138 120.14815668 84.78398949 132.171875 87.91015625 C131.55456043 90.62514168 130.71594031 93.04774487 129.609375 95.59765625 C126.99010004 102.56518571 127.74216906 108.41912463 130.3203125 115.25 C131.78843878 119.836211 132.44727583 124.61588578 133.23046875 129.359375 C134.71542614 134.96031388 137.79897902 138.8208332 141.921875 142.78515625 C142.53546875 143.38070312 143.1490625 143.97625 143.78125 144.58984375 C144.24015625 145.02554688 144.6990625 145.46125 145.171875 145.91015625 C143.46355305 149.81974878 141.09586269 151.97216267 137.92578125 154.73828125 C133.53448171 160.17605975 132.42563894 167.58987857 131.046875 174.28515625 C129.28757748 182.67875129 129.28757748 182.67875129 128.171875 184.91015625 C127.63820118 191.63444636 128.77031828 196.3875631 131.296875 202.625 C132.171875 204.91015625 132.171875 204.91015625 132.171875 206.91015625 C130.99431641 207.31234375 130.99431641 207.31234375 129.79296875 207.72265625 C122.19479363 210.55682218 117.83664667 213.33426667 113.171875 219.91015625 C112.37278312 221.01460323 111.57327215 222.11874706 110.7734375 223.22265625 C109.03168315 225.64230931 107.30455706 228.07168237 105.5859375 230.5078125 C88.0679809 255.27812095 88.0679809 255.27812095 77.171875 258.91015625 C74.88854873 262.52609999 74.10164326 266.66426068 73.05078125 270.765625 C72.61572266 271.82716797 72.61572266 271.82716797 72.171875 272.91015625 C69.171875 273.91015625 69.171875 273.91015625 66.109375 272.47265625 C57.55448587 268.68229129 50.19180293 271.34750281 41.92236328 274.49169922 C36.72813331 276.44595266 31.59742727 277.82641281 26.171875 278.97265625 C14.58585442 281.5309477 8.17231323 286.22882966 0.171875 294.91015625 C-2.48434385 293.70527347 -3.72618425 293.04607725 -5.515625 290.66015625 C-11.71278539 283.29056011 -19.42469268 280.79094015 -28.578125 278.84765625 C-35.36265932 277.29917514 -41.84327158 275.73330473 -48.265625 273.03515625 C-55.91617807 269.87116422 -61.10638774 270.27774582 -68.828125 272.91015625 C-71.375 272.765625 -71.375 272.765625 -73.828125 271.91015625 C-75.015625 269.80078125 -75.015625 269.80078125 -75.828125 267.16015625 C-78.3929659 258.92307105 -86.0067202 254.104121 -92.38867188 248.7265625 C-95.95718518 245.67808379 -99.04354739 242.71855835 -101.828125 238.91015625 C-102.29774658 238.26804199 -102.76736816 237.62592773 -103.2512207 236.96435547 C-104.91199134 234.68260103 -106.55902183 232.39144535 -108.203125 230.09765625 C-109.86323748 227.78397145 -111.52531441 225.4720544 -113.19873047 223.16796875 C-114.28083288 221.66852567 -115.34779422 220.15803319 -116.39892578 218.63671875 C-119.1967172 214.68267432 -121.16957949 212.04969574 -125.953125 210.53515625 C-129.05678532 209.50060281 -131.93265953 208.44461952 -134.828125 206.91015625 C-133.84709472 203.74067381 -132.9123267 201.04425525 -131.140625 198.22265625 C-128.46812415 191.47777314 -130.32380207 184.54109958 -133.07421875 178.0703125 C-134.01521865 175.37407964 -134.4076408 172.73340728 -134.828125 169.91015625 C-136.52246727 159.29049916 -139.23646966 154.68261413 -147.828125 147.91015625 C-146.57648328 144.1552311 -144.81672279 143.17942881 -141.71484375 140.8984375 C-135.94621182 134.8192788 -134.38801204 126.37046924 -132.515625 118.47265625 C-132.23912109 117.39177734 -131.96261719 116.31089844 -131.67773438 115.19726562 C-129.4846692 106.0880352 -129.20150642 99.35876409 -133.828125 90.91015625 C-133.828125 89.92015625 -133.828125 88.93015625 -133.828125 87.91015625 C-132.95929688 87.63042969 -132.09046875 87.35070312 -131.1953125 87.0625 C-130.04289062 86.66160156 -128.89046875 86.26070313 -127.703125 85.84765625 C-126.56617187 85.46480469 -125.42921875 85.08195312 -124.2578125 84.6875 C-117.22047385 81.0405876 -113.52681971 74.11785585 -109.22070312 67.67382812 C-102.58771251 57.76607932 -96.20912595 49.30590811 -86.828125 41.91015625 C-78.86374518 35.62108838 -75.52515221 29.26929721 -71.828125 19.91015625 C-71.065 20.21953125 -70.301875 20.52890625 -69.515625 20.84765625 C-59.35406123 24.86501867 -50.34298456 22.82635681 -40.34375 19.40625 C-37.02761198 18.27520473 -33.69451611 17.29833756 -30.3125 16.3828125 C-29.37204834 16.12709473 -28.43159668 15.87137695 -27.46264648 15.60791016 C-25.61802906 15.11096936 -23.77123699 14.62201356 -21.92211914 14.14208984 C-16.99048241 12.79237874 -13.69793962 11.40426071 -9.828125 7.91015625 C-9.168125 7.91015625 -8.508125 7.91015625 -7.828125 7.91015625 C-7.580625 7.33265625 -7.333125 6.75515625 -7.078125 6.16015625 C-3.55865424 -0.17489113 -3.55865424 -0.17489113 0 0 Z " fill="#0297D6" transform="translate(195.828125,60.08984375)"/>
<path d="M0 0 C2.74445998 2.4649353 5.39381421 5.01727414 8.00927734 7.61816406 C9.28224308 8.87387375 10.5905073 10.093549 11.90234375 11.30859375 C31.20832131 29.51423062 43.85229267 58.39351168 44.75 84.7890625 C44.77977252 87.21469599 44.79226638 89.64059217 44.7890625 92.06640625 C44.78745117 93.3412085 44.78583984 94.61601074 44.78417969 95.92944336 C44.65255999 106.11900195 43.37077067 115.27895116 40.4140625 125.00390625 C40.05570313 126.21949219 39.69734375 127.43507812 39.328125 128.6875 C36.86324775 136.554721 36.86324775 136.554721 34.4140625 139.00390625 C29.43615986 134.12759346 24.63055392 129.19179717 20.09375 123.90234375 C17.92149778 121.44719356 15.59628786 119.17326322 13.25732422 116.87841797 C11.4792832 115.07023268 9.81701848 113.20770148 8.1640625 111.28515625 C4.51733239 107.09045188 0.73604092 103.0386546 -3.0859375 99.00390625 C-8.0422046 93.77172325 -12.8768897 88.46030678 -17.5859375 83.00390625 C-21.44735954 83.78774192 -23.59921994 85.43201057 -26.5859375 88.00390625 C-33.66787474 79.11381482 -40.52986916 70.09733273 -47.20654297 60.89941406 C-48.58872457 59.00007637 -49.9784389 57.10651293 -51.37109375 55.21484375 C-56.38541509 48.40335025 -61.35993314 41.56758261 -66.23852539 34.65795898 C-68.04516646 32.10958396 -69.88381281 29.64238237 -71.87109375 27.23046875 C-73.5859375 25.00390625 -73.5859375 25.00390625 -73.5859375 23.00390625 C-74.2459375 23.00390625 -74.9059375 23.00390625 -75.5859375 23.00390625 C-75.8334375 23.535 -76.0809375 24.06609375 -76.3359375 24.61328125 C-77.90929362 27.62232482 -79.72156037 30.41621458 -81.5859375 33.25390625 C-82.2871875 34.3315625 -82.9884375 35.40921875 -83.7109375 36.51953125 C-84.3296875 37.339375 -84.9484375 38.15921875 -85.5859375 39.00390625 C-86.2459375 39.00390625 -86.9059375 39.00390625 -87.5859375 39.00390625 C-87.86356934 39.58640137 -88.14120117 40.16889648 -88.42724609 40.76904297 C-89.53329475 42.90236986 -90.74399733 44.79786136 -92.125 46.76171875 C-92.61895264 47.46466064 -93.11290527 48.16760254 -93.62182617 48.8918457 C-94.14623291 49.63007568 -94.67063965 50.36830566 -95.2109375 51.12890625 C-95.75145752 51.89227295 -96.29197754 52.65563965 -96.84887695 53.44213867 C-100.30107371 58.28549618 -103.86877353 62.99335375 -107.640625 67.59375 C-111.42961314 72.28813892 -114.98728126 77.16311028 -118.5859375 82.00390625 C-119.58522833 83.33777117 -120.5849273 84.67133116 -121.5859375 86.00390625 C-124.95314137 84.61058051 -126.5718899 83.02497765 -128.5859375 80.00390625 C-131.89574595 80.58592479 -133.51982674 81.56863793 -135.86328125 83.953125 C-136.75756836 84.85514648 -136.75756836 84.85514648 -137.66992188 85.77539062 C-138.28158203 86.40767578 -138.89324219 87.03996094 -139.5234375 87.69140625 C-140.13123047 88.30435547 -140.73902344 88.91730469 -141.36523438 89.54882812 C-144.97572251 93.2216332 -148.3364171 97.00945969 -151.5859375 101.00390625 C-153.2734375 102.87890625 -153.2734375 102.87890625 -154.5859375 104.00390625 C-155.2459375 104.00390625 -155.9059375 104.00390625 -156.5859375 104.00390625 C-156.7921875 104.56078125 -156.9984375 105.11765625 -157.2109375 105.69140625 C-158.73258828 108.2505462 -160.56180939 109.69291474 -162.87890625 111.51953125 C-164.82077818 113.20811553 -166.42234745 115.04153395 -168.0859375 117.00390625 C-170.98995068 120.41739543 -174.13965352 123.13200293 -177.5859375 126.00390625 C-179.39830788 128.0774479 -181.15366077 130.18237756 -182.875 132.33203125 C-184.77749762 134.19109285 -185.98939429 134.61839328 -188.5859375 135.00390625 C-199.59266405 107.55234716 -199.85541744 77.46149926 -188.390625 49.9921875 C-174.86617872 19.42146219 -151.89664605 -3.23001547 -121.5859375 -16.99609375 C-120.69261719 -17.40601562 -119.79929687 -17.8159375 -118.87890625 -18.23828125 C-80.91073309 -34.48337027 -31.36356152 -27.03605178 0 0 Z " fill="#034180" transform="translate(270.5859375,113.99609375)"/>
<path d="M0 0 C4.0357625 1.6912458 6.60658898 5.31174527 9.5390625 8.46484375 C14.45821592 13.03367171 19.73595681 14.45449859 26.171875 15.78515625 C31.82186706 17.0100139 37.04735361 18.52721839 42.421875 20.66015625 C50.90062174 23.83846385 58.76385542 24.34791795 67.171875 20.91015625 C68.491875 20.91015625 69.811875 20.91015625 71.171875 20.91015625 C71.28402344 21.51601562 71.39617187 22.121875 71.51171875 22.74609375 C74.19184099 34.13223398 82.50813432 40.75189484 91.49609375 47.609375 C98.47352475 53.60894706 103.25999287 61.2801767 108.31640625 68.8828125 C115.09520675 78.96203138 120.14815668 84.78398949 132.171875 87.91015625 C131.55456043 90.62514168 130.71594031 93.04774487 129.609375 95.59765625 C126.99010004 102.56518571 127.74216906 108.41912463 130.3203125 115.25 C131.78843878 119.836211 132.44727583 124.61588578 133.23046875 129.359375 C134.71542614 134.96031388 137.79897902 138.8208332 141.921875 142.78515625 C142.53546875 143.38070312 143.1490625 143.97625 143.78125 144.58984375 C144.24015625 145.02554688 144.6990625 145.46125 145.171875 145.91015625 C143.46355305 149.81974878 141.09586269 151.97216267 137.92578125 154.73828125 C133.53448171 160.17605975 132.42563894 167.58987857 131.046875 174.28515625 C129.28757748 182.67875129 129.28757748 182.67875129 128.171875 184.91015625 C127.63820118 191.63444636 128.77031828 196.3875631 131.296875 202.625 C132.171875 204.91015625 132.171875 204.91015625 132.171875 206.91015625 C130.99431641 207.31234375 130.99431641 207.31234375 129.79296875 207.72265625 C122.19479363 210.55682218 117.83664667 213.33426667 113.171875 219.91015625 C112.37278312 221.01460323 111.57327215 222.11874706 110.7734375 223.22265625 C109.03168315 225.64230931 107.30455706 228.07168237 105.5859375 230.5078125 C88.0679809 255.27812095 88.0679809 255.27812095 77.171875 258.91015625 C74.88854873 262.52609999 74.10164326 266.66426068 73.05078125 270.765625 C72.61572266 271.82716797 72.61572266 271.82716797 72.171875 272.91015625 C69.171875 273.91015625 69.171875 273.91015625 66.109375 272.47265625 C57.55448587 268.68229129 50.19180293 271.34750281 41.92236328 274.49169922 C36.72813331 276.44595266 31.59742727 277.82641281 26.171875 278.97265625 C14.58585442 281.5309477 8.17231323 286.22882966 0.171875 294.91015625 C-2.48434385 293.70527347 -3.72618425 293.04607725 -5.515625 290.66015625 C-11.71278539 283.29056011 -19.42469268 280.79094015 -28.578125 278.84765625 C-35.36265932 277.29917514 -41.84327158 275.73330473 -48.265625 273.03515625 C-55.91617807 269.87116422 -61.10638774 270.27774582 -68.828125 272.91015625 C-71.375 272.765625 -71.375 272.765625 -73.828125 271.91015625 C-75.015625 269.80078125 -75.015625 269.80078125 -75.828125 267.16015625 C-78.3929659 258.92307105 -86.0067202 254.104121 -92.38867188 248.7265625 C-95.95718518 245.67808379 -99.04354739 242.71855835 -101.828125 238.91015625 C-102.29774658 238.26804199 -102.76736816 237.62592773 -103.2512207 236.96435547 C-104.91199134 234.68260103 -106.55902183 232.39144535 -108.203125 230.09765625 C-109.86323748 227.78397145 -111.52531441 225.4720544 -113.19873047 223.16796875 C-114.28083288 221.66852567 -115.34779422 220.15803319 -116.39892578 218.63671875 C-119.1967172 214.68267432 -121.16957949 212.04969574 -125.953125 210.53515625 C-129.05678532 209.50060281 -131.93265953 208.44461952 -134.828125 206.91015625 C-133.84709472 203.74067381 -132.9123267 201.04425525 -131.140625 198.22265625 C-128.46812415 191.47777314 -130.32380207 184.54109958 -133.07421875 178.0703125 C-134.01521865 175.37407964 -134.4076408 172.73340728 -134.828125 169.91015625 C-136.52246727 159.29049916 -139.23646966 154.68261413 -147.828125 147.91015625 C-146.57648328 144.1552311 -144.81672279 143.17942881 -141.71484375 140.8984375 C-135.94621182 134.8192788 -134.38801204 126.37046924 -132.515625 118.47265625 C-132.23912109 117.39177734 -131.96261719 116.31089844 -131.67773438 115.19726562 C-129.4846692 106.0880352 -129.20150642 99.35876409 -133.828125 90.91015625 C-133.828125 89.92015625 -133.828125 88.93015625 -133.828125 87.91015625 C-132.95929688 87.63042969 -132.09046875 87.35070312 -131.1953125 87.0625 C-130.04289062 86.66160156 -128.89046875 86.26070313 -127.703125 85.84765625 C-126.56617187 85.46480469 -125.42921875 85.08195312 -124.2578125 84.6875 C-117.22047385 81.0405876 -113.52681971 74.11785585 -109.22070312 67.67382812 C-102.58771251 57.76607932 -96.20912595 49.30590811 -86.828125 41.91015625 C-78.86374518 35.62108838 -75.52515221 29.26929721 -71.828125 19.91015625 C-71.065 20.21953125 -70.301875 20.52890625 -69.515625 20.84765625 C-59.35406123 24.86501867 -50.34298456 22.82635681 -40.34375 19.40625 C-37.02761198 18.27520473 -33.69451611 17.29833756 -30.3125 16.3828125 C-29.37204834 16.12709473 -28.43159668 15.87137695 -27.46264648 15.60791016 C-25.61802906 15.11096936 -23.77123699 14.62201356 -21.92211914 14.14208984 C-16.99048241 12.79237874 -13.69793962 11.40426071 -9.828125 7.91015625 C-9.168125 7.91015625 -8.508125 7.91015625 -7.828125 7.91015625 C-7.580625 7.33265625 -7.333125 6.75515625 -7.078125 6.16015625 C-3.55865424 -0.17489113 -3.55865424 -0.17489113 0 0 Z M-82.828125 60.91015625 C-84.21763113 62.08435152 -85.61298124 63.25168645 -87.015625 64.41015625 C-106.65184702 81.65657437 -119.05172399 110.24948021 -121.828125 135.91015625 C-123.8840754 169.5184299 -114.11377086 200.51169166 -91.828125 225.91015625 C-83.6852833 234.95083042 -75.21132292 242.5042931 -64.828125 248.91015625 C-64.27157227 249.25771973 -63.71501953 249.6052832 -63.14160156 249.96337891 C-47.23212376 259.81491237 -28.73689393 267.17612019 -9.828125 267.91015625 C-8.58546875 267.97332031 -7.3428125 268.03648437 -6.0625 268.1015625 C25.947672 269.21726672 56.58799524 257.56931449 80.03515625 235.92578125 C82.4696476 233.62925924 84.86457087 231.33578367 87.171875 228.91015625 C87.83703125 228.22824219 88.5021875 227.54632813 89.1875 226.84375 C111.76777627 202.91940967 119.92606311 171.16808705 119.484375 139.11328125 C119.20972175 130.31979983 117.86520358 122.26890356 115.171875 113.91015625 C114.95756836 113.23243164 114.74326172 112.55470703 114.52246094 111.85644531 C104.82373156 82.02614665 84.08188369 56.26106596 56.15698242 41.63134766 C37.83557501 32.38217167 20.33792749 27.73507502 -0.140625 27.72265625 C-1.19185547 27.71041016 -2.24308594 27.69816406 -3.32617188 27.68554688 C-33.41576112 27.63006515 -61.40263493 40.25612409 -82.828125 60.91015625 Z " fill="#F4F8F9" transform="translate(195.828125,60.08984375)"/>
<path d="M0 0 C3.87115259 3.67690121 7.02337212 7.53817039 10.125 11.875 C11.09623635 13.21623115 12.06759392 14.55737454 13.0390625 15.8984375 C13.77624512 16.9208252 13.77624512 16.9208252 14.52832031 17.96386719 C16.83498504 21.1552381 19.16807847 24.32706445 21.5 27.5 C22.4142253 28.74597431 23.32828729 29.99206847 24.2421875 31.23828125 C24.69561523 31.85654785 25.14904297 32.47481445 25.61621094 33.11181641 C27.01871549 35.02553733 28.41968467 36.94037396 29.8203125 38.85546875 C35.49463641 46.61034532 41.21390015 54.3280602 47 62 C48.36125 60.7315625 48.36125 60.7315625 49.75 59.4375 C51.55279643 57.75762151 52.37514212 57.00130723 54.8671875 56.99609375 C58.06826327 58.50282722 60.08462111 61.00867525 62.375 63.625 C63.44332811 64.81441528 64.51236752 66.00319197 65.58203125 67.19140625 C66.13971191 67.81547363 66.69739258 68.43954102 67.27197266 69.08251953 C70.15740849 72.28430153 73.11275891 75.42007649 76.0625 78.5625 C80.21225434 82.99871652 84.34102117 87.45203801 88.4375 91.9375 C95.21943852 99.35905248 102.11197825 106.6770189 109 114 C101.20347911 131.98862083 91.25541763 147.39769848 76 160 C74.83984375 160.97453125 74.83984375 160.97453125 73.65625 161.96875 C49.42527395 181.90562903 19.98884066 189.62603719 -11 189 C-11 188.34 -11 187.68 -11 187 C-8.03 187 -5.06 187 -2 187 C-2.00229111 185.85160141 -2.00458221 184.70320282 -2.00694275 183.52000427 C-2.06961268 148.47617578 -1.90107174 113.43577162 -1.64418566 78.39310324 C-1.63874062 77.65018825 -1.63329559 76.90727327 -1.62768555 76.1418457 C-1.62223201 75.39777666 -1.61677848 74.65370763 -1.61115968 73.88709104 C-1.5663976 67.72356534 -1.52676354 61.56001321 -1.48800808 55.39644724 C-1.44982435 49.3639935 -1.4079199 43.33157293 -1.36312145 37.29916471 C-1.33672482 33.73451361 -1.31186073 30.16986846 -1.29092598 26.60518074 C-1.26778962 22.68604031 -1.23693931 18.76698206 -1.20532227 14.84790039 C-1.1995668 13.6842395 -1.19381134 12.52057861 -1.18788147 11.32165527 C-1.17809265 10.26229263 -1.16830383 9.20292999 -1.15821838 8.11146545 C-1.15176583 7.19100968 -1.14531328 6.27055391 -1.1386652 5.32220554 C-1 3 -1 3 0 0 Z " fill="#0388C8" transform="translate(197,139)"/>
<path d="M0 0 C0.495 1.485 0.495 1.485 1 3 C-0.61886415 4.67262717 -2.2452729 6.33795537 -3.875 8 C-5.23238281 9.3921875 -5.23238281 9.3921875 -6.6171875 10.8125 C-9 13 -9 13 -11 13 C-11.26440384 13.59201202 -11.52880768 14.18402405 -11.80122375 14.79397583 C-13.04441061 17.08172573 -14.30433157 18.50484587 -16.18041992 20.29638672 C-16.82416061 20.91738251 -17.46790131 21.5383783 -18.13114929 22.17819214 C-18.82392471 22.83868561 -19.51670013 23.49917908 -20.23046875 24.1796875 C-21.68757777 25.59690731 -23.14393556 27.01489983 -24.59960938 28.43359375 C-26.89657302 30.66236975 -29.19829689 32.88530618 -31.51342773 35.09521484 C-33.74749178 37.2326412 -35.95894366 39.39143366 -38.16796875 41.5546875 C-38.86681686 42.21113251 -39.56566498 42.86757751 -40.28569031 43.54391479 C-42.05918991 45.29788641 -43.6322463 46.91406058 -45 49 C-44.98823835 52.92408749 -44.02769426 55.4584586 -41.875 58.6875 C-41.25625 59.780625 -40.6375 60.87375 -40 62 C-40.33 62.99 -40.66 63.98 -41 65 C-44.54628896 59.45752952 -47.59441952 54.46567022 -49 48 C-48.27554688 47.61457031 -47.55109375 47.22914063 -46.8046875 46.83203125 C-43.65882243 44.77714167 -41.5815852 42.52473818 -39.125 39.6875 C-35.76973836 35.90348279 -32.42582821 32.45969526 -28.51953125 29.2578125 C-25.06416044 26.39758268 -22.1125635 23.17329333 -19.3125 19.6875 C-18.549375 18.800625 -17.78625 17.91375 -17 17 C-16.34 17 -15.68 17 -15 17 C-14.505 15.515 -14.505 15.515 -14 14 C-13.34 14 -12.68 14 -12 14 C-11.34 12.68 -10.68 11.36 -10 10 C-9.34 10 -8.68 10 -8 10 C-7.79375 9.46375 -7.5875 8.9275 -7.375 8.375 C-5.42003056 4.9982346 -2.81776305 2.69525161 0 0 Z " fill="#128AC6" transform="translate(131,201)"/>
<path d="M0 0 C1.67542976 0.28604898 3.34385343 0.61781233 5 1 C2.31182823 2.79211451 1.0334332 3.37952235 -1.984375 4.03515625 C-2.75523437 4.20466797 -3.52609375 4.37417969 -4.3203125 4.54882812 C-5.52300781 4.8030957 -5.52300781 4.8030957 -6.75 5.0625 C-7.53632813 5.23587891 -8.32265625 5.40925781 -9.1328125 5.58789062 C-16.96714659 7.28619727 -24.42555173 8.14642855 -32.4375 8.0625 C-33.26443359 8.05798828 -34.09136719 8.05347656 -34.94335938 8.04882812 C-36.96227146 8.03715811 -38.98114574 8.01922718 -41 8 C-41 7.67 -41 7.34 -41 7 C-39.17662109 6.90912109 -39.17662109 6.90912109 -37.31640625 6.81640625 C-35.73175772 6.73201668 -34.14712298 6.6473679 -32.5625 6.5625 C-31.76005859 6.52318359 -30.95761719 6.48386719 -30.13085938 6.44335938 C-26.24760439 6.5945704 -26.24760439 6.5945704 -23 5 C-21.19034171 4.83900898 -19.37671042 4.72206604 -17.5625 4.625 C-8.15199307 4.08802477 -8.15199307 4.08802477 0 0 Z " fill="#3896C4" transform="translate(227,320)"/>
<path d="M0 0 C4.6069317 1.36962834 5.61717687 2.96753009 8 7 C9.76877659 8.57810572 11.591005 10.03660929 13.4765625 11.47265625 C15.26244538 13.26311832 15.60783493 14.53571951 16 17 C1.69230769 5.07692308 1.69230769 5.07692308 0 0 Z " fill="#2291C3" transform="translate(101,281)"/>
<path d="M0 0 C4.94342226 0.40354467 8.09317619 1.401156 12.2890625 4.01171875 C14.73168245 5.42263849 17.30330001 6.21072195 20 7 C20 7.66 20 8.32 20 9 C12.84870304 7.12849037 6.50594543 4.50213658 0 1 C0 0.67 0 0.34 0 0 Z " fill="#329CC6" transform="translate(137,312)"/>
<path d="M0 0 C1.8125 0.875 1.8125 0.875 2.8125 2.875 C1.1625 2.545 -0.4875 2.215 -2.1875 1.875 C-2.39375 2.431875 -2.6 2.98875 -2.8125 3.5625 C-4.73750774 6.80001302 -7.22600902 8.55731141 -10.1875 10.875 C-10.8475 10.545 -11.5075 10.215 -12.1875 9.875 C-11.56875 9.6275 -10.95 9.38 -10.3125 9.125 C-7.76246075 7.62497691 -7.42527652 6.5052751 -6.1875 3.875 C-2.91074723 -0.16632841 -2.91074723 -0.16632841 0 0 Z " fill="#CEE0EC" transform="translate(196.1875,60.125)"/>
<path d="M0 0 C0 3 0 3 -1.53125 4.82421875 C-2.1809375 5.43910156 -2.830625 6.05398437 -3.5 6.6875 C-4.1496875 7.31011719 -4.799375 7.93273437 -5.46875 8.57421875 C-5.9740625 9.04472656 -6.479375 9.51523438 -7 10 C-7.99 9.67 -8.98 9.34 -10 9 C-6.7 6.03 -3.4 3.06 0 0 Z " fill="#D1E3EE" transform="translate(117,95)"/>
<path d="M0 0 C0.99 0.33 1.98 0.66 3 1 C-0.465 3.97 -0.465 3.97 -4 7 C-4.66 6.67 -5.32 6.34 -6 6 C-4.02 4.02 -2.04 2.04 0 0 Z " fill="#326091" transform="translate(111,122)"/>
</svg>
